<svg xmlns="http://www.w3.org/2000/svg" width="500" height="500" viewBox="0 0 500 500" version="1.1"><path d="M 115.716 149.767 C 117.797 153.489, 127.150 170.350, 136.500 187.235 C 145.850 204.120, 153.773 217.950, 154.107 217.968 C 154.726 218.001, 199 144.640, 199 143.582 C 199 143.262, 179.410 143, 155.466 143 L 111.932 143 115.716 149.767" stroke="none" fill="#65c18c" fill-rule="evenodd"/><path d="M 185 185.717 C 170.975 209.177, 159.500 228.861, 159.500 229.460 C 159.500 230.058, 166.700 243.237, 175.500 258.745 L 191.500 286.941 217.170 286.971 L 242.841 287 235.587 300.250 L 228.334 313.500 216.678 314 L 205.022 314.500 220.434 337.500 C 228.910 350.150, 239.774 366.688, 244.575 374.250 C 249.376 381.813, 253.583 388, 253.923 388 C 254.537 388, 339.352 233.106, 340.576 229.750 C 341.179 228.096, 338.095 228, 284.607 228 C 253.473 228, 228.032 227.662, 228.070 227.250 C 228.109 226.838, 231.599 220.875, 235.825 214 L 243.510 201.500 291.531 201.241 L 339.552 200.981 343.377 208.712 C 347.909 217.871, 347.269 218.245, 355.717 201.500 C 358.769 195.450, 367.057 180.059, 374.133 167.298 C 381.210 154.537, 387 143.850, 387 143.548 C 387 143.247, 347.288 143.014, 298.750 143.031 L 210.500 143.062 185 185.717" stroke="none" fill="#fc7cac" fill-rule="evenodd"/><path d="M 0 250.002 L 0 500.004 250.250 499.752 L 500.500 499.500 500.752 249.750 L 501.004 0 250.502 0 L 0 0 0 250.002 M 0.492 250.500 C 0.492 388, 0.608 444.101, 0.750 375.170 C 0.892 306.238, 0.892 193.738, 0.750 125.170 C 0.608 56.601, 0.492 113, 0.492 250.500 M 115.716 149.767 C 117.797 153.489, 127.150 170.350, 136.500 187.235 C 145.850 204.120, 153.773 217.950, 154.107 217.968 C 154.726 218.001, 199 144.640, 199 143.582 C 199 143.262, 179.410 143, 155.466 143 L 111.932 143 115.716 149.767 M 185 185.717 C 170.975 209.177, 159.500 228.861, 159.500 229.460 C 159.500 230.058, 166.700 243.237, 175.500 258.745 L 191.500 286.941 217.170 286.971 L 242.841 287 235.587 300.250 L 228.334 313.500 216.678 314 L 205.022 314.500 220.434 337.500 C 228.910 350.150, 239.774 366.688, 244.575 374.250 C 249.376 381.813, 253.583 388, 253.923 388 C 254.537 388, 339.352 233.106, 340.576 229.750 C 341.179 228.096, 338.095 228, 284.607 228 C 253.473 228, 228.032 227.662, 228.070 227.250 C 228.109 226.838, 231.599 220.875, 235.825 214 L 243.510 201.500 291.531 201.241 L 339.552 200.981 343.377 208.712 C 347.909 217.871, 347.269 218.245, 355.717 201.500 C 358.769 195.450, 367.057 180.059, 374.133 167.298 C 381.210 154.537, 387 143.850, 387 143.548 C 387 143.247, 347.288 143.014, 298.750 143.031 L 210.500 143.062 185 185.717" stroke="none" fill="#fbfbfb" fill-rule="evenodd"/></svg>